<svg id="_レイヤー_1-2" xmlns="http://www.w3.org/2000/svg" width="195.268" height="23.282" viewBox="0 0 195.268 23.282">
  <g id="グループ_11889" data-name="グループ 11889">
    <path id="パス_4916" data-name="パス 4916" d="M84.753,3.47V13.483c0,5.083-2.01,9.1-8.579,9.1h-.026c-6.569,0-8.579-4.021-8.579-9.1V3.47h3.662V14.533c0,3.175,2,4.763,4.93,4.763s4.93-1.6,4.93-4.763V3.47Z" transform="translate(18.609 0.695)"/>
    <path id="パス_4917" data-name="パス 4917" d="M30.018,0A2.216,2.216,0,0,0,27.79,2.2a2.228,2.228,0,0,0,4.456,0A2.216,2.216,0,0,0,30.018,0Zm2.561,22.949H27.47L28.494,6.768h3.073l1.024,16.181Z" transform="translate(7.574)"/>
    <path id="パス_4918" data-name="パス 4918" d="M111.968,0a2.216,2.216,0,0,0-2.228,2.2,2.228,2.228,0,0,0,4.456,0A2.216,2.216,0,0,0,111.968,0Zm2.561,22.949H109.42l1.024-16.181h3.073l1.024,16.181Z" transform="translate(30.169)"/>
    <path id="パス_4919" data-name="パス 4919" d="M65.993,18.886v3.368H53.24V3.47H56.9V18.886Z" transform="translate(14.669 0.695)"/>
    <path id="パス_4920" data-name="パス 4920" d="M51.01,18.886v3.368H38.27V3.47h3.649V18.886Z" transform="translate(10.544 0.695)"/>
    <path id="パス_4921" data-name="パス 4921" d="M107.229,3.47V22.254h-3.662V8.989c-1.754,2.228-3.521,4.456-5.275,6.7H95.807c-1.754-2.228-3.521-4.456-5.275-6.7V22.254H86.87V3.47h3.662c2.164,2.714,4.341,5.416,6.5,8.131h0c2.164-2.714,4.341-5.416,6.5-8.131H107.2Z" transform="translate(23.916 0.695)"/>
    <path id="パス_4922" data-name="パス 4922" d="M0,3.47H3.841L7.99,15.762,12.369,3.47H16.21l4.379,12.292L24.738,3.47h3.841L22.113,22.254H19.194L14.29,8.566,9.4,22.254H6.466Z" transform="translate(0 0.695)"/>
    <path id="パス_4923" data-name="パス 4923" d="M149.622,3.47h-4.161L137.74,22.254h3.918l1.972-4.789h7.823l1.959,4.789h3.931L149.61,3.47Zm-2.087,4.481,2.522,6.146H145Z" transform="translate(37.924 0.695)"/>
    <path id="パス_4924" data-name="パス 4924" d="M138.107,3.47V22.254h-3.662Q129.067,15.743,123.7,9.232V22.254H120.04V3.47H123.7q5.378,6.511,10.743,13.022V3.47Z" transform="translate(32.961 0.695)"/>
  </g>
</svg>
